<svg width="640" height="400" viewBox="0 0 640 400" xmlns="http://www.w3.org/2000/svg">
  <rect width="640" height="400" fill="#e6f0f4"/>
  <g stroke="#d3e3ea" stroke-width="2">
    <line x1="0" y1="120" x2="640" y2="120"/><line x1="0" y1="200" x2="640" y2="200"/>
    <line x1="160" y1="60" x2="160" y2="200"/><line x1="320" y1="60" x2="320" y2="200"/><line x1="480" y1="60" x2="480" y2="200"/>
  </g>
  <rect y="300" width="640" height="100" fill="#cfd8dc"/>
  <!-- bathtub -->
  <rect x="70" y="230" width="300" height="70" rx="34" fill="#ffffff" stroke="#b0bec5" stroke-width="6"/>
  <rect x="90" y="244" width="260" height="30" rx="16" fill="#d6ecf7"/>
  <circle cx="100" cy="222" r="8" fill="#90a4ae"/>
  <!-- mirror + sink -->
  <rect x="450" y="90" width="110" height="80" rx="8" fill="#d6ecf7" stroke="#fff" stroke-width="6"/>
  <rect x="470" y="230" width="70" height="14" rx="6" fill="#ffffff"/>
  <rect x="498" y="244" width="14" height="56" fill="#cfd8dc"/>
  <rect x="470" y="228" width="70" height="24" rx="12" fill="#eceff1" stroke="#b0bec5" stroke-width="3"/>
  <!-- towel -->
  <rect x="300" y="150" width="70" height="50" rx="6" fill="#e57373"/>
  <!-- wm -->
  <g transform="translate(566,14) scale(0.13)" fill="none" stroke-linecap="round" opacity="0.85">
    <g stroke="#000000" stroke-opacity="0.28" stroke-width="34" transform="translate(10,10)"><line x1="76" y1="76" x2="324" y2="324"/><line x1="137" y1="37" x2="363" y2="263"/><line x1="37" y1="137" x2="263" y2="363"/><line x1="76" y1="324" x2="324" y2="76"/><line x1="137" y1="363" x2="363" y2="137"/><line x1="37" y1="263" x2="263" y2="37"/></g>
    <g stroke="#ffffff" stroke-width="30"><line x1="76" y1="76" x2="324" y2="324"/><line x1="137" y1="37" x2="363" y2="263"/><line x1="37" y1="137" x2="263" y2="363"/><line x1="76" y1="324" x2="324" y2="76"/><line x1="137" y1="363" x2="363" y2="137"/><line x1="37" y1="263" x2="263" y2="37"/></g>
  </g>
</svg>
