<svg width="640" height="400" viewBox="0 0 640 400" xmlns="http://www.w3.org/2000/svg">
  <rect width="640" height="400" fill="#f0ecf5"/>
  <rect y="300" width="640" height="100" fill="#e0cdb0"/>
  <rect y="296" width="640" height="6" fill="#cdb794"/>
  <!-- window -->
  <rect x="440" y="70" width="140" height="120" rx="4" fill="#d6ecf7" stroke="#fff" stroke-width="8"/>
  <line x1="510" y1="70" x2="510" y2="190" stroke="#fff" stroke-width="6"/>
  <!-- bed -->
  <rect x="70" y="150" width="300" height="70" rx="10" fill="#9575cd"/>
  <rect x="70" y="120" width="300" height="46" rx="10" fill="#b39ddb"/>
  <rect x="60" y="210" width="330" height="90" rx="8" fill="#efe6f7"/>
  <rect x="90" y="150" width="90" height="40" rx="8" fill="#fff"/>
  <rect x="200" y="150" width="90" height="40" rx="8" fill="#fff"/>
  <rect x="60" y="270" width="330" height="30" rx="8" fill="#e57373"/>
  <!-- nightstand + lamp -->
  <rect x="410" y="230" width="70" height="70" rx="6" fill="#8d6e63"/>
  <rect x="438" y="200" width="14" height="34" fill="#6d4c41"/>
  <polygon points="424,200 466,200 460,172 430,172" fill="#ffe082"/>
  <!-- wm -->
  <g transform="translate(596,12) scale(0.08)" fill="none" stroke-linecap="round" opacity="0.85">
    <g stroke="#ffffff" stroke-opacity="0.55" stroke-width="45"><line x1="76" y1="76" x2="324" y2="324"/><line x1="137" y1="37" x2="363" y2="263"/><line x1="37" y1="137" x2="263" y2="363"/><line x1="76" y1="324" x2="324" y2="76"/><line x1="137" y1="363" x2="363" y2="137"/><line x1="37" y1="263" x2="263" y2="37"/></g>
    <g stroke="#ffffff" stroke-width="30"><line x1="76" y1="76" x2="324" y2="324"/><line x1="137" y1="37" x2="363" y2="263"/><line x1="37" y1="137" x2="263" y2="363"/><line x1="76" y1="324" x2="324" y2="76"/><line x1="137" y1="363" x2="363" y2="137"/><line x1="37" y1="263" x2="263" y2="37"/></g>
  </g>
</svg>
