<svg width="640" height="400" viewBox="0 0 640 400" xmlns="http://www.w3.org/2000/svg">
  <rect width="640" height="400" fill="#eef1f5"/>
  <rect y="300" width="640" height="100" fill="#d7dbe0"/>
  <!-- window wall -->
  <rect x="360" y="60" width="220" height="150" rx="4" fill="#d6ecf7" stroke="#fff" stroke-width="8"/>
  <line x1="470" y1="60" x2="470" y2="210" stroke="#fff" stroke-width="6"/>
  <line x1="360" y1="135" x2="580" y2="135" stroke="#fff" stroke-width="6"/>
  <!-- shelves -->
  <rect x="60" y="90" width="120" height="120" rx="4" fill="#8d6e63"/>
  <g fill="#e57373"><rect x="72" y="104" width="16" height="40"/><rect x="94" y="104" width="16" height="40"/></g>
  <g fill="#ffb74d"><rect x="72" y="156" width="16" height="40"/><rect x="94" y="156" width="16" height="40"/></g>
  <!-- desk + chair + monitor -->
  <rect x="200" y="250" width="260" height="16" rx="4" fill="#5c7fa3"/>
  <rect x="210" y="266" width="12" height="40" fill="#456079"/>
  <rect x="438" y="266" width="12" height="40" fill="#456079"/>
  <rect x="300" y="196" width="90" height="56" rx="4" fill="#37474f"/>
  <rect x="308" y="204" width="74" height="40" fill="#90caf9"/>
  <rect x="338" y="252" width="14" height="10" fill="#37474f"/>
  <rect x="230" y="230" width="40" height="40" rx="8" fill="#e57373"/>
  <rect x="234" y="266" width="8" height="40" fill="#b0453f"/>
  <!-- wm -->
  <g transform="translate(596,12) scale(0.08)" fill="none" stroke-linecap="round" opacity="0.85">
    <g stroke="#ffffff" stroke-opacity="0.55" stroke-width="45"><line x1="76" y1="76" x2="324" y2="324"/><line x1="137" y1="37" x2="363" y2="263"/><line x1="37" y1="137" x2="263" y2="363"/><line x1="76" y1="324" x2="324" y2="76"/><line x1="137" y1="363" x2="363" y2="137"/><line x1="37" y1="263" x2="263" y2="37"/></g>
    <g stroke="#ffffff" stroke-width="30"><line x1="76" y1="76" x2="324" y2="324"/><line x1="137" y1="37" x2="363" y2="263"/><line x1="37" y1="137" x2="263" y2="363"/><line x1="76" y1="324" x2="324" y2="76"/><line x1="137" y1="363" x2="363" y2="137"/><line x1="37" y1="263" x2="263" y2="37"/></g>
  </g>
</svg>
