<svg width="640" height="400" viewBox="0 0 640 400" xmlns="http://www.w3.org/2000/svg">
  <defs><linearGradient id="sky2" x1="0" y1="0" x2="0" y2="1">
    <stop offset="0" stop-color="#bfe0ff"/><stop offset="1" stop-color="#eaf6ff"/>
  </linearGradient></defs>
  <rect width="640" height="220" fill="url(#sky2)"/>
  <circle cx="530" cy="70" r="30" fill="#ffe082"/>
  <rect y="220" width="640" height="180" fill="#bfe3a6"/>
  <rect y="216" width="640" height="8" fill="#a9d68c"/>
  <polygon points="0,260 640,236 640,400 0,400" fill="#a9d68c" opacity="0.5"/>
  <!-- fence -->
  <g fill="#e0c9a6" stroke="#b89a6f" stroke-width="2">
    <rect x="60" y="230" width="14" height="70"/><rect x="140" y="230" width="14" height="70"/>
    <rect x="220" y="230" width="14" height="70"/><rect x="300" y="230" width="14" height="70"/>
  </g>
  <rect x="52" y="244" width="270" height="10" fill="#e0c9a6"/>
  <rect x="52" y="272" width="270" height="10" fill="#e0c9a6"/>
  <!-- tree -->
  <rect x="470" y="200" width="14" height="80" fill="#8d6e63"/>
  <circle cx="477" cy="180" r="46" fill="#7cb342"/>
  <!-- sign -->
  <rect x="380" y="210" width="90" height="50" rx="6" fill="#ffffff" stroke="#e53935" stroke-width="5"/>
  <rect x="420" y="260" width="8" height="46" fill="#9e9e9e"/>
</svg>
