<svg xmlns="http://www.w3.org/2000/svg" viewBox="0 0 1600 900" role="img" aria-label="A2 бақылау нүктесі: күтпеген мәселе кезінде келісу"><defs><pattern id="grid" width="40" height="40" patternUnits="userSpaceOnUse"><path d="M40 0H0V40" fill="none" stroke="#d1e4ed" stroke-width="1"/></pattern><filter id="shadow" x="-20%" y="-25%" width="145%" height="160%"><feDropShadow dx="0" dy="12" stdDeviation="14" flood-color="#17364e" flood-opacity=".18"/></filter><marker id="arrow" markerWidth="9" markerHeight="9" refX="8" refY="4.5" orient="auto"><path d="M0 0L9 4.5L0 9Z" fill="#29556b"/></marker></defs><rect width="1600" height="900" fill="#edf7f7"/><rect width="1600" height="900" fill="url(#grid)"/><rect x="48" y="48" width="1504" height="804" rx="28" fill="#f9fcfc" stroke="#bfd5dd" stroke-width="3" filter="url(#shadow)"/><text x="82" y="117" fill="#ba433c" font-size="26" font-weight="800" font-family="DejaVu Sans,Arial,sans-serif">ТІРЕК КАРТА · 56</text><text x="82" y="177" fill="#17364e" font-size="39" font-weight="800" font-family="DejaVu Sans,Arial,sans-serif">A2 бақылау нүктесі: күтпеген мәселе кезінде</text><text x="82" y="231" fill="#17364e" font-size="39" font-weight="800" font-family="DejaVu Sans,Arial,sans-serif">келісу</text><g font-family="DejaVu Sans,Arial,sans-serif"><g filter="url(#shadow)"><rect x="73" y="304" width="340" height="300" rx="22" fill="#fff" stroke="#196b88" stroke-width="4"/><rect x="73" y="304" width="340" height="52" rx="22" fill="#196b88"/><text x="97" y="339" font-size="25" fill="#fff" font-weight="700">01</text><text x="243.0" y="404" text-anchor="middle" font-size="25" font-weight="700" fill="#17364e">ӨТІНІШ</text><text x="243.0" y="470" text-anchor="middle" font-size="20" fill="#426073">Маған көмектесе аласыз ба?</text></g><g filter="url(#shadow)"><rect x="446" y="304" width="340" height="300" rx="22" fill="#fff" stroke="#be6b36" stroke-width="4"/><rect x="446" y="304" width="340" height="52" rx="22" fill="#be6b36"/><text x="470" y="339" font-size="25" fill="#fff" font-weight="700">02</text><text x="616.0" y="404" text-anchor="middle" font-size="25" font-weight="700" fill="#17364e">СЕБЕП+ШАРТ</text><text x="616.0" y="470" text-anchor="middle" font-size="20" fill="#426073">Әзірге себебі белгісіз.</text></g><g filter="url(#shadow)"><rect x="819" y="304" width="340" height="300" rx="22" fill="#fff" stroke="#655ab0" stroke-width="4"/><rect x="819" y="304" width="340" height="52" rx="22" fill="#655ab0"/><text x="843" y="339" font-size="25" fill="#fff" font-weight="700">03</text><text x="989.0" y="404" text-anchor="middle" font-size="25" font-weight="700" fill="#17364e">ҚОСЫМША ЖОЛ</text><text x="989.0" y="470" text-anchor="middle" font-size="20" fill="#426073">Егер проектор істемесе,</text><text x="989.0" y="496" text-anchor="middle" font-size="20" fill="#426073">қағаз картаны қолданамыз.</text></g><g filter="url(#shadow)"><rect x="1192" y="304" width="340" height="300" rx="22" fill="#fff" stroke="#258573" stroke-width="4"/><rect x="1192" y="304" width="340" height="52" rx="22" fill="#258573"/><text x="1216" y="339" font-size="25" fill="#fff" font-weight="700">04</text><text x="1362.0" y="404" text-anchor="middle" font-size="25" font-weight="700" fill="#17364e">РАСТАУ</text><text x="1362.0" y="470" text-anchor="middle" font-size="20" fill="#426073">Келістік: ертең сағат төртте</text><text x="1362.0" y="496" text-anchor="middle" font-size="20" fill="#426073">кітапханада.</text></g><g fill="none" stroke="#29556b" stroke-width="5" stroke-linecap="round" stroke-linejoin="round" marker-end="url(#arrow)"><path d="M418 453h21"/><path d="M791 453h21"/><path d="M1164 453h21"/></g></g><rect x="260" y="682" width="1080" height="86" rx="20" fill="#17364e" filter="url(#shadow)"/><text x="800" y="736" text-anchor="middle" fill="#fff" font-size="27" font-weight="700" font-family="DejaVu Sans,Arial,sans-serif">БАЙҚА → АЙТ → ТЫҢДА → ТЕКСЕР</text></svg>