<svg xmlns="http://www.w3.org/2000/svg" viewBox="-608 -190 1216 684" width="1216" height="684" role="img" aria-label="Пакет — қалта: бас әріппен жазылғаны сыртқа көрінеді, қалғаны ішінде қалады"><style>
:root{
  --ink:#3a3a3a; --soft:#5c5c5c; --line:#d6d3ce;
  --top:#ded8cd; --lft:#bcb6aa; --rgt:#9d978d;
  --red:#d32f2f; --red-d:#a92525; --red-l:#d9564f;
  --grn:#2e7d32; --grn-d:#24632a; --grn-l:#4e8f52;
  --tagink:#ffffff;
}
@media (prefers-color-scheme: dark){
  :root{
    --ink:#d8d6d2; --soft:#c2bfb8; --line:#454545;
    --top:#4f4c47; --lft:#403d3a; --rgt:#34322f;
    --red:#ef5350; --red-d:#b93b38; --red-l:#ff8a84;
    --grn:#66bb6a; --grn-d:#478a4a; --grn-l:#8fd193;
    --tagink:#241f1f;
  }
}
.g{stroke:#8a857e;stroke-width:.7;fill:none;opacity:.35}
.t{fill:var(--top)}   .l{fill:var(--lft)}   .r{fill:var(--rgt)}
.rt{fill:var(--red-l)} .rl{fill:var(--red)}  .rr{fill:var(--red-d)}
.gt{fill:var(--grn-l)} .gl{fill:var(--grn)}  .gr{fill:var(--grn-d)}
.band-req{fill:var(--red);opacity:.16}
.band-res{fill:var(--grn);opacity:.16}
.band-flow{fill:var(--ink);opacity:.13}
.arw-flow{fill:var(--soft)}
.arw-req{fill:var(--red)} .arw-res{fill:var(--grn)}
text{font-family:ui-sans-serif,system-ui,-apple-system,"Segoe UI",Roboto,sans-serif}
.lbl{fill:var(--ink);font-size:13px;font-weight:600;text-anchor:middle}
.sub{fill:var(--soft);font-size:11px;text-anchor:middle}
.tag{fill:var(--tagink);font-size:10px;font-weight:700;text-anchor:middle;letter-spacing:.3px}
.cap{fill:var(--ink);font-size:12.5px;font-weight:700;text-anchor:middle}
.lbl-acc{fill:var(--tagink);font-size:13px;font-weight:600;text-anchor:middle}
.sub-acc{fill:var(--tagink);opacity:.8;font-size:11px;text-anchor:middle}
.mono{font-family:ui-monospace,SFMono-Regular,Menlo,monospace;font-size:11px;fill:var(--soft);text-anchor:middle}
</style><line class="g" x1="-608.16" y1="-76.00" x2="-608.16" y2="380.00"/><line class="g" x1="-535.76" y1="-76.00" x2="-535.76" y2="380.00"/><line class="g" x1="-463.36" y1="-76.00" x2="-463.36" y2="380.00"/><line class="g" x1="-390.96" y1="-76.00" x2="-390.96" y2="380.00"/><line class="g" x1="-318.56" y1="-76.00" x2="-318.56" y2="380.00"/><line class="g" x1="-246.16" y1="-76.00" x2="-246.16" y2="380.00"/><line class="g" x1="-173.76" y1="-76.00" x2="-173.76" y2="380.00"/><line class="g" x1="-101.36" y1="-76.00" x2="-101.36" y2="380.00"/><line class="g" x1="-28.96" y1="-76.00" x2="-28.96" y2="380.00"/><line class="g" x1="43.44" y1="-76.00" x2="43.44" y2="380.00"/><line class="g" x1="115.84" y1="-76.00" x2="115.84" y2="380.00"/><line class="g" x1="188.24" y1="-76.00" x2="188.24" y2="380.00"/><line class="g" x1="260.64" y1="-76.00" x2="260.64" y2="380.00"/><line class="g" x1="333.04" y1="-76.00" x2="333.04" y2="380.00"/><line class="g" x1="405.44" y1="-76.00" x2="405.44" y2="380.00"/><line class="g" x1="477.84" y1="-76.00" x2="477.84" y2="380.00"/><line class="g" x1="550.24" y1="-76.00" x2="550.24" y2="380.00"/><line class="g" x1="622.64" y1="-76.00" x2="622.64" y2="380.00"/><line class="g" x1="-608.16" y1="-76.00" x2="608.16" y2="-76.00"/><line class="g" x1="-608.16" y1="-34.20" x2="608.16" y2="-34.20"/><line class="g" x1="-608.16" y1="7.60" x2="608.16" y2="7.60"/><line class="g" x1="-608.16" y1="49.40" x2="608.16" y2="49.40"/><line class="g" x1="-608.16" y1="91.20" x2="608.16" y2="91.20"/><line class="g" x1="-608.16" y1="133.00" x2="608.16" y2="133.00"/><line class="g" x1="-608.16" y1="174.80" x2="608.16" y2="174.80"/><line class="g" x1="-608.16" y1="216.60" x2="608.16" y2="216.60"/><line class="g" x1="-608.16" y1="258.40" x2="608.16" y2="258.40"/><line class="g" x1="-608.16" y1="300.20" x2="608.16" y2="300.20"/><line class="g" x1="-608.16" y1="342.00" x2="608.16" y2="342.00"/><line class="g" x1="-608.16" y1="383.80" x2="608.16" y2="383.80"/><text class="cap" x="0.00" y="-120.00">ПАКЕТ — БҰЛ ҚАЛТА</text><text class="mono" x="0.00" y="-98.00">import "sabaq14/blog"</text><text class="cap" x="0.00" y="410.00">БАС ӘРІП — СЫРТҚА АШЫЛАТЫН ЕСІК</text><text class="mono" x="0.00" y="432.00">s.Get(…) көрінеді   ·   s.count() көрінбейді</text><g transform="translate(0,152.00) scale(1.442) translate(-57.59,-144.02)"><polygon class="band-flow" points="-138.22,114.00 39.49,114.00 39.49,152.00 -138.22,152.00"/><polygon class="arw-flow" points="-95.81,132.24 -109.58,125.40 -109.58,139.08"/><polygon class="arw-flow" points="-36.57,132.24 -50.35,125.40 -50.35,139.08"/><polygon class="arw-flow" points="22.66,132.24 8.89,125.40 8.89,139.08"/><polygon class="t" points="-236.94,51.30 -148.09,102.60 -236.94,153.90 -325.80,102.60"/><polygon class="r" points="-325.80,152.00 -236.94,203.30 -236.94,153.90 -325.80,102.60"/><polygon class="l" points="-148.09,152.00 -236.94,203.30 -236.94,153.90 -148.09,102.60"/><text class="lbl" x="-236.94" y="100.60">main</text><text class="sub" x="-236.94" y="113.60">тек рұқсат етілгенді көреді</text><polygon class="gt" points="125.05,51.30 213.91,102.60 125.05,153.90 36.20,102.60"/><polygon class="gr" points="36.20,152.00 125.05,203.30 125.05,153.90 36.20,102.60"/><polygon class="gl" points="213.91,152.00 125.05,203.30 125.05,153.90 213.91,102.60"/><text class="lbl-acc" x="125.05" y="100.60">blog</text><text class="sub-acc" x="125.05" y="113.60">blog/ қалтасы</text><polygon class="gt" points="342.25,-4.56 440.98,52.44 342.25,109.44 243.53,52.44"/><polygon class="gr" points="243.53,68.40 342.25,125.40 342.25,109.44 243.53,52.44"/><polygon class="gl" points="440.98,68.40 342.25,125.40 342.25,109.44 440.98,52.44"/><text class="tag" x="342.25" y="56.44">Article · Get</text><polygon class="t" points="342.25,162.64 440.98,219.64 342.25,276.64 243.53,219.64"/><polygon class="r" points="243.53,235.60 342.25,292.60 342.25,276.64 243.53,219.64"/><polygon class="l" points="440.98,235.60 342.25,292.60 342.25,276.64 440.98,219.64"/><text class="sub" x="342.25" y="223.64">items · count</text></g></svg>