<svg xmlns="http://www.w3.org/2000/svg" viewBox="-608 -190 1216 684" width="1216" height="684" role="img" aria-label="A function has two ways out: a value and an error"><style>
:root{
  --ink:#3a3a3a; --soft:#5c5c5c; --line:#d6d3ce;
  --top:#ded8cd; --lft:#bcb6aa; --rgt:#9d978d;
  --red:#d32f2f; --red-d:#a92525; --red-l:#d9564f;
  --grn:#2e7d32; --grn-d:#24632a; --grn-l:#4e8f52;
  --tagink:#ffffff;
}
@media (prefers-color-scheme: dark){
  :root{
    --ink:#d8d6d2; --soft:#c2bfb8; --line:#454545;
    --top:#4f4c47; --lft:#403d3a; --rgt:#34322f;
    --red:#ef5350; --red-d:#b93b38; --red-l:#ff8a84;
    --grn:#66bb6a; --grn-d:#478a4a; --grn-l:#8fd193;
    --tagink:#241f1f;
  }
}
.g{stroke:#8a857e;stroke-width:.7;fill:none;opacity:.35}
.t{fill:var(--top)}   .l{fill:var(--lft)}   .r{fill:var(--rgt)}
.rt{fill:var(--red-l)} .rl{fill:var(--red)}  .rr{fill:var(--red-d)}
.gt{fill:var(--grn-l)} .gl{fill:var(--grn)}  .gr{fill:var(--grn-d)}
.band-req{fill:var(--red);opacity:.16}
.band-res{fill:var(--grn);opacity:.16}
.band-flow{fill:var(--ink);opacity:.13}
.arw-flow{fill:var(--soft)}
.arw-req{fill:var(--red)} .arw-res{fill:var(--grn)}
text{font-family:ui-sans-serif,system-ui,-apple-system,"Segoe UI",Roboto,sans-serif}
/* Sizes are for the file, not the screen: a map 1216px wide is shown in an
   article at roughly half that, so everything here lands at about 0.6 of what
   it says. At the old sizes the caption arrived as 7px and the code line as 6,
   which is a squint, and a squint over forty lessons is a headache.

   The captions carry most of the increase because they stand in open space.
   A label on a block is held to what the block's face can hold: past that it
   overhangs the edges and reads as floating text rather than a name. */
.lbl{fill:var(--ink);font-size:16px;font-weight:600;text-anchor:middle}
.sub{fill:var(--soft);font-size:13px;text-anchor:middle}
.tag{fill:var(--tagink);font-size:13px;font-weight:700;text-anchor:middle;letter-spacing:.3px}
.cap{fill:var(--ink);font-size:21px;font-weight:700;text-anchor:middle}
.lbl-acc{fill:var(--tagink);font-size:16px;font-weight:600;text-anchor:middle}
.sub-acc{fill:var(--tagink);opacity:.85;font-size:13px;text-anchor:middle}
.mono{font-family:ui-monospace,SFMono-Regular,Menlo,monospace;font-size:18px;fill:var(--soft);text-anchor:middle}
</style><line class="g" x1="-608.16" y1="-64.60" x2="-608.16" y2="368.60"/><line class="g" x1="-535.76" y1="-64.60" x2="-535.76" y2="368.60"/><line class="g" x1="-463.36" y1="-64.60" x2="-463.36" y2="368.60"/><line class="g" x1="-390.96" y1="-64.60" x2="-390.96" y2="368.60"/><line class="g" x1="-318.56" y1="-64.60" x2="-318.56" y2="368.60"/><line class="g" x1="-246.16" y1="-64.60" x2="-246.16" y2="368.60"/><line class="g" x1="-173.76" y1="-64.60" x2="-173.76" y2="368.60"/><line class="g" x1="-101.36" y1="-64.60" x2="-101.36" y2="368.60"/><line class="g" x1="-28.96" y1="-64.60" x2="-28.96" y2="368.60"/><line class="g" x1="43.44" y1="-64.60" x2="43.44" y2="368.60"/><line class="g" x1="115.84" y1="-64.60" x2="115.84" y2="368.60"/><line class="g" x1="188.24" y1="-64.60" x2="188.24" y2="368.60"/><line class="g" x1="260.64" y1="-64.60" x2="260.64" y2="368.60"/><line class="g" x1="333.04" y1="-64.60" x2="333.04" y2="368.60"/><line class="g" x1="405.44" y1="-64.60" x2="405.44" y2="368.60"/><line class="g" x1="477.84" y1="-64.60" x2="477.84" y2="368.60"/><line class="g" x1="550.24" y1="-64.60" x2="550.24" y2="368.60"/><line class="g" x1="622.64" y1="-64.60" x2="622.64" y2="368.60"/><line class="g" x1="-608.16" y1="-64.60" x2="608.16" y2="-64.60"/><line class="g" x1="-608.16" y1="-22.80" x2="608.16" y2="-22.80"/><line class="g" x1="-608.16" y1="19.00" x2="608.16" y2="19.00"/><line class="g" x1="-608.16" y1="60.80" x2="608.16" y2="60.80"/><line class="g" x1="-608.16" y1="102.60" x2="608.16" y2="102.60"/><line class="g" x1="-608.16" y1="144.40" x2="608.16" y2="144.40"/><line class="g" x1="-608.16" y1="186.20" x2="608.16" y2="186.20"/><line class="g" x1="-608.16" y1="228.00" x2="608.16" y2="228.00"/><line class="g" x1="-608.16" y1="269.80" x2="608.16" y2="269.80"/><line class="g" x1="-608.16" y1="311.60" x2="608.16" y2="311.60"/><line class="g" x1="-608.16" y1="353.40" x2="608.16" y2="353.40"/><text class="cap" x="0.00" y="-126.00">AN ERROR IS NOT AN EXCEPTION, IT IS THE SECOND VALUE</text><text class="mono" x="0.00" y="-99.00">func (s *Store) Get(slug string) (Article, error)</text><text class="cap" x="0.00" y="408.00">THE SECOND ONE IS CHECKED FIRST</text><text class="mono" x="0.00" y="435.00">if err != nil { return … }   ·   errors.Is(err, ErrNotFound)</text><g transform="translate(0,152.00) scale(1.250) translate(-32.91,-102.03)"><polygon class="band-res" points="-111.89,49.40 223.78,49.40 223.78,91.20 -111.89,91.20"/><polygon class="arw-res" points="-69.48,69.54 -83.26,62.70 -83.26,76.38"/><polygon class="arw-res" points="22.66,69.54 8.89,62.70 8.89,76.38"/><polygon class="arw-res" points="114.81,69.54 101.03,62.70 101.03,76.38"/><polygon class="band-req" points="-111.89,117.80 223.78,117.80 223.78,159.60 -111.89,159.60"/><polygon class="arw-req" points="-69.48,137.94 -83.26,131.10 -83.26,144.78"/><polygon class="arw-req" points="22.66,137.94 8.89,131.10 8.89,144.78"/><polygon class="arw-req" points="114.81,137.94 101.03,131.10 101.03,144.78"/><polygon class="t" points="-217.20,39.90 -121.76,95.00 -217.20,150.10 -312.64,95.00"/><polygon class="r" points="-312.64,152.00 -217.20,207.10 -217.20,150.10 -312.64,95.00"/><polygon class="l" points="-121.76,152.00 -217.20,207.10 -217.20,150.10 -121.76,95.00"/><text class="lbl" x="-217.20" y="93.00">Get(slug)</text><text class="sub" x="-217.20" y="106.00">returns two values</text><polygon class="gt" points="302.76,-3.04 378.45,40.66 302.76,84.36 227.07,40.66"/><polygon class="gr" points="227.07,58.90 302.76,102.60 302.76,84.36 227.07,40.66"/><polygon class="gl" points="378.45,58.90 302.76,102.60 302.76,84.36 378.45,40.66"/><text class="tag" x="302.76" y="44.66">Article</text><polygon class="rt" points="302.76,90.06 378.45,133.76 302.76,177.46 227.07,133.76"/><polygon class="rr" points="227.07,152.00 302.76,195.70 302.76,177.46 227.07,133.76"/><polygon class="rl" points="378.45,152.00 302.76,195.70 302.76,177.46 378.45,133.76"/><text class="tag" x="302.76" y="137.76">error</text><text class="sub" x="59.24" y="48.64">no error — a value</text><text class="sub" x="59.24" y="117.04">an error — not nil</text></g></svg>