<svg xmlns="http://www.w3.org/2000/svg" viewBox="-608 -190 1216 684" width="1216" height="684" role="img" aria-label="Three separate maps collapse into one type: Article"><style>
:root{
  --ink:#3a3a3a; --soft:#5c5c5c; --line:#d6d3ce;
  --top:#ded8cd; --lft:#bcb6aa; --rgt:#9d978d;
  --red:#d32f2f; --red-d:#a92525; --red-l:#d9564f;
  --grn:#2e7d32; --grn-d:#24632a; --grn-l:#4e8f52;
  --tagink:#ffffff;
}
@media (prefers-color-scheme: dark){
  :root{
    --ink:#d8d6d2; --soft:#c2bfb8; --line:#454545;
    --top:#4f4c47; --lft:#403d3a; --rgt:#34322f;
    --red:#ef5350; --red-d:#b93b38; --red-l:#ff8a84;
    --grn:#66bb6a; --grn-d:#478a4a; --grn-l:#8fd193;
    --tagink:#241f1f;
  }
}
.g{stroke:#8a857e;stroke-width:.7;fill:none;opacity:.35}
.t{fill:var(--top)}   .l{fill:var(--lft)}   .r{fill:var(--rgt)}
.rt{fill:var(--red-l)} .rl{fill:var(--red)}  .rr{fill:var(--red-d)}
.gt{fill:var(--grn-l)} .gl{fill:var(--grn)}  .gr{fill:var(--grn-d)}
.band-req{fill:var(--red);opacity:.16}
.band-res{fill:var(--grn);opacity:.16}
.band-flow{fill:var(--ink);opacity:.13}
.arw-flow{fill:var(--soft)}
.arw-req{fill:var(--red)} .arw-res{fill:var(--grn)}
text{font-family:ui-sans-serif,system-ui,-apple-system,"Segoe UI",Roboto,sans-serif}
/* Sizes are for the file, not the screen: a map 1216px wide is shown in an
   article at roughly half that, so everything here lands at about 0.6 of what
   it says. At the old sizes the caption arrived as 7px and the code line as 6,
   which is a squint, and a squint over forty lessons is a headache.

   The captions carry most of the increase because they stand in open space.
   A label on a block is held to what the block's face can hold: past that it
   overhangs the edges and reads as floating text rather than a name. */
.lbl{fill:var(--ink);font-size:16px;font-weight:600;text-anchor:middle}
.sub{fill:var(--soft);font-size:13px;text-anchor:middle}
.tag{fill:var(--tagink);font-size:13px;font-weight:700;text-anchor:middle;letter-spacing:.3px}
.cap{fill:var(--ink);font-size:21px;font-weight:700;text-anchor:middle}
.lbl-acc{fill:var(--tagink);font-size:16px;font-weight:600;text-anchor:middle}
.sub-acc{fill:var(--tagink);opacity:.85;font-size:13px;text-anchor:middle}
.mono{font-family:ui-monospace,SFMono-Regular,Menlo,monospace;font-size:18px;fill:var(--soft);text-anchor:middle}
</style><line class="g" x1="-608.16" y1="-64.60" x2="-608.16" y2="368.60"/><line class="g" x1="-535.76" y1="-64.60" x2="-535.76" y2="368.60"/><line class="g" x1="-463.36" y1="-64.60" x2="-463.36" y2="368.60"/><line class="g" x1="-390.96" y1="-64.60" x2="-390.96" y2="368.60"/><line class="g" x1="-318.56" y1="-64.60" x2="-318.56" y2="368.60"/><line class="g" x1="-246.16" y1="-64.60" x2="-246.16" y2="368.60"/><line class="g" x1="-173.76" y1="-64.60" x2="-173.76" y2="368.60"/><line class="g" x1="-101.36" y1="-64.60" x2="-101.36" y2="368.60"/><line class="g" x1="-28.96" y1="-64.60" x2="-28.96" y2="368.60"/><line class="g" x1="43.44" y1="-64.60" x2="43.44" y2="368.60"/><line class="g" x1="115.84" y1="-64.60" x2="115.84" y2="368.60"/><line class="g" x1="188.24" y1="-64.60" x2="188.24" y2="368.60"/><line class="g" x1="260.64" y1="-64.60" x2="260.64" y2="368.60"/><line class="g" x1="333.04" y1="-64.60" x2="333.04" y2="368.60"/><line class="g" x1="405.44" y1="-64.60" x2="405.44" y2="368.60"/><line class="g" x1="477.84" y1="-64.60" x2="477.84" y2="368.60"/><line class="g" x1="550.24" y1="-64.60" x2="550.24" y2="368.60"/><line class="g" x1="622.64" y1="-64.60" x2="622.64" y2="368.60"/><line class="g" x1="-608.16" y1="-64.60" x2="608.16" y2="-64.60"/><line class="g" x1="-608.16" y1="-22.80" x2="608.16" y2="-22.80"/><line class="g" x1="-608.16" y1="19.00" x2="608.16" y2="19.00"/><line class="g" x1="-608.16" y1="60.80" x2="608.16" y2="60.80"/><line class="g" x1="-608.16" y1="102.60" x2="608.16" y2="102.60"/><line class="g" x1="-608.16" y1="144.40" x2="608.16" y2="144.40"/><line class="g" x1="-608.16" y1="186.20" x2="608.16" y2="186.20"/><line class="g" x1="-608.16" y1="228.00" x2="608.16" y2="228.00"/><line class="g" x1="-608.16" y1="269.80" x2="608.16" y2="269.80"/><line class="g" x1="-608.16" y1="311.60" x2="608.16" y2="311.60"/><line class="g" x1="-608.16" y1="353.40" x2="608.16" y2="353.40"/><text class="cap" x="0.00" y="-126.00">ONE VALUE INSTEAD OF THREE</text><text class="mono" x="0.00" y="-99.00">type Article struct { … }</text><text class="cap" x="0.00" y="408.00">A STRUCT IS PASSED AS A COPY</text><text class="mono" x="0.00" y="435.00">for _, a := range blog { a.Title = … }  // changes nothing</text><g transform="translate(0,152.00) scale(1.250) translate(39.49,-144.40)"><polygon class="t" points="-243.53,7.60 -184.29,41.80 -243.53,76.00 -302.76,41.80"/><polygon class="r" points="-302.76,57.00 -243.53,91.20 -243.53,76.00 -302.76,41.80"/><polygon class="l" points="-184.29,57.00 -243.53,91.20 -243.53,76.00 -184.29,41.80"/><text class="sub" x="-243.53" y="45.80">titles</text><polygon class="t" points="-243.53,102.60 -184.29,136.80 -243.53,171.00 -302.76,136.80"/><polygon class="r" points="-302.76,152.00 -243.53,186.20 -243.53,171.00 -302.76,136.80"/><polygon class="l" points="-184.29,152.00 -243.53,186.20 -243.53,171.00 -184.29,136.80"/><text class="sub" x="-243.53" y="140.80">words</text><polygon class="t" points="-243.53,197.60 -184.29,231.80 -243.53,266.00 -302.76,231.80"/><polygon class="r" points="-302.76,247.00 -243.53,281.20 -243.53,266.00 -302.76,231.80"/><polygon class="l" points="-184.29,247.00 -243.53,281.20 -243.53,266.00 -184.29,231.80"/><text class="sub" x="-243.53" y="235.80">lang</text><polygon class="band-flow" points="-151.38,127.30 -46.07,127.30 -46.07,161.50 -151.38,161.50"/><polygon class="arw-flow" points="-115.55,143.64 -129.33,136.80 -129.33,150.48"/><polygon class="arw-flow" points="-62.90,143.64 -76.67,136.80 -76.67,150.48"/><polygon class="gt" points="125.05,51.30 223.78,108.30 125.05,165.30 26.33,108.30"/><polygon class="gr" points="26.33,152.00 125.05,209.00 125.05,165.30 26.33,108.30"/><polygon class="gl" points="223.78,152.00 125.05,209.00 125.05,165.30 223.78,108.30"/><text class="lbl-acc" x="125.05" y="106.30">Article</text><text class="sub-acc" x="125.05" y="119.30">Title · Words · Lang</text></g></svg>