<svg xmlns="http://www.w3.org/2000/svg" viewBox="-608 -190 1216 684" width="1216" height="684" role="img" aria-label="Два шага: git add выбирает, git commit записывает"><style>
:root{
  --ink:#3a3a3a; --soft:#5c5c5c; --line:#d6d3ce;
  --top:#ded8cd; --lft:#bcb6aa; --rgt:#9d978d;
  --red:#d32f2f; --red-d:#a92525; --red-l:#d9564f;
  --grn:#2e7d32; --grn-d:#24632a; --grn-l:#4e8f52;
  --tagink:#ffffff;
}
@media (prefers-color-scheme: dark){
  :root{
    --ink:#d8d6d2; --soft:#c2bfb8; --line:#454545;
    --top:#4f4c47; --lft:#403d3a; --rgt:#34322f;
    --red:#ef5350; --red-d:#b93b38; --red-l:#ff8a84;
    --grn:#66bb6a; --grn-d:#478a4a; --grn-l:#8fd193;
    --tagink:#241f1f;
  }
}
.g{stroke:#8a857e;stroke-width:.7;fill:none;opacity:.35}
.t{fill:var(--top)}   .l{fill:var(--lft)}   .r{fill:var(--rgt)}
.rt{fill:var(--red-l)} .rl{fill:var(--red)}  .rr{fill:var(--red-d)}
.gt{fill:var(--grn-l)} .gl{fill:var(--grn)}  .gr{fill:var(--grn-d)}
.band-req{fill:var(--red);opacity:.16}
.band-res{fill:var(--grn);opacity:.16}
.band-flow{fill:var(--ink);opacity:.13}
.arw-flow{fill:var(--soft)}
.arw-req{fill:var(--red)} .arw-res{fill:var(--grn)}
text{font-family:ui-sans-serif,system-ui,-apple-system,"Segoe UI",Roboto,sans-serif}
/* Sizes are for the file, not the screen: a map 1216px wide is shown in an
   article at roughly half that, so everything here lands at about 0.6 of what
   it says. At the old sizes the caption arrived as 7px and the code line as 6,
   which is a squint, and a squint over forty lessons is a headache.

   The captions carry most of the increase because they stand in open space.
   A label on a block is held to what the block's face can hold: past that it
   overhangs the edges and reads as floating text rather than a name. */
.lbl{fill:var(--ink);font-size:18px;font-weight:600;text-anchor:middle}
.sub{fill:var(--soft);font-size:14px;text-anchor:middle}
.tag{fill:var(--tagink);font-size:14px;font-weight:700;text-anchor:middle;letter-spacing:.3px}
.cap{fill:var(--ink);font-size:21px;font-weight:700;text-anchor:middle}
.lbl-acc{fill:var(--tagink);font-size:18px;font-weight:600;text-anchor:middle}
.sub-acc{fill:var(--tagink);opacity:.85;font-size:14px;text-anchor:middle}
.mono{font-family:ui-monospace,SFMono-Regular,Menlo,monospace;font-size:18px;fill:var(--soft);text-anchor:middle}
</style><line class="g" x1="-608.16" y1="-64.60" x2="-608.16" y2="368.60"/><line class="g" x1="-535.76" y1="-64.60" x2="-535.76" y2="368.60"/><line class="g" x1="-463.36" y1="-64.60" x2="-463.36" y2="368.60"/><line class="g" x1="-390.96" y1="-64.60" x2="-390.96" y2="368.60"/><line class="g" x1="-318.56" y1="-64.60" x2="-318.56" y2="368.60"/><line class="g" x1="-246.16" y1="-64.60" x2="-246.16" y2="368.60"/><line class="g" x1="-173.76" y1="-64.60" x2="-173.76" y2="368.60"/><line class="g" x1="-101.36" y1="-64.60" x2="-101.36" y2="368.60"/><line class="g" x1="-28.96" y1="-64.60" x2="-28.96" y2="368.60"/><line class="g" x1="43.44" y1="-64.60" x2="43.44" y2="368.60"/><line class="g" x1="115.84" y1="-64.60" x2="115.84" y2="368.60"/><line class="g" x1="188.24" y1="-64.60" x2="188.24" y2="368.60"/><line class="g" x1="260.64" y1="-64.60" x2="260.64" y2="368.60"/><line class="g" x1="333.04" y1="-64.60" x2="333.04" y2="368.60"/><line class="g" x1="405.44" y1="-64.60" x2="405.44" y2="368.60"/><line class="g" x1="477.84" y1="-64.60" x2="477.84" y2="368.60"/><line class="g" x1="550.24" y1="-64.60" x2="550.24" y2="368.60"/><line class="g" x1="622.64" y1="-64.60" x2="622.64" y2="368.60"/><line class="g" x1="-608.16" y1="-64.60" x2="608.16" y2="-64.60"/><line class="g" x1="-608.16" y1="-22.80" x2="608.16" y2="-22.80"/><line class="g" x1="-608.16" y1="19.00" x2="608.16" y2="19.00"/><line class="g" x1="-608.16" y1="60.80" x2="608.16" y2="60.80"/><line class="g" x1="-608.16" y1="102.60" x2="608.16" y2="102.60"/><line class="g" x1="-608.16" y1="144.40" x2="608.16" y2="144.40"/><line class="g" x1="-608.16" y1="186.20" x2="608.16" y2="186.20"/><line class="g" x1="-608.16" y1="228.00" x2="608.16" y2="228.00"/><line class="g" x1="-608.16" y1="269.80" x2="608.16" y2="269.80"/><line class="g" x1="-608.16" y1="311.60" x2="608.16" y2="311.60"/><line class="g" x1="-608.16" y1="353.40" x2="608.16" y2="353.40"/><text class="cap" x="0.00" y="-126.00">ДВА ШАГА, А НЕ ОДИН</text><text class="mono" x="0.00" y="-99.00">git status — на каком шаге вы сейчас</text><text class="cap" x="0.00" y="408.00">ИСТОРИЯ — ЭТО ТОЧКИ, В КОТОРЫЕ МОЖНО ВЕРНУТЬСЯ</text><text class="mono" x="0.00" y="435.00">git log --oneline   ·   git restore --source=HEAD~1 main.go</text><g transform="translate(0,152.00) scale(1.250) translate(-0.00,-130.15)"><polygon class="band-flow" points="-164.54,112.10 -65.82,112.10 -65.82,150.10 -164.54,150.10"/><polygon class="arw-flow" points="-105.68,130.34 -119.46,123.50 -119.46,137.18"/><polygon class="band-flow" points="65.82,112.10 164.54,112.10 164.54,150.10 65.82,150.10"/><polygon class="arw-flow" points="124.68,130.34 110.91,123.50 110.91,137.18"/><polygon class="t" points="-263.27,58.90 -177.71,108.30 -263.27,157.70 -348.84,108.30"/><polygon class="r" points="-348.84,152.00 -263.27,201.40 -263.27,157.70 -348.84,108.30"/><polygon class="l" points="-177.71,152.00 -263.27,201.40 -263.27,157.70 -177.71,108.30"/><text class="lbl" x="-263.27" y="106.30">рабочая папка</text><text class="sub" x="-263.27" y="119.30">правите файлы</text><polygon class="rt" points="0.00,58.90 85.56,108.30 0.00,157.70 -85.56,108.30"/><polygon class="rr" points="-85.56,152.00 0.00,201.40 0.00,157.70 -85.56,108.30"/><polygon class="rl" points="85.56,152.00 0.00,201.40 0.00,157.70 85.56,108.30"/><text class="lbl-acc" x="0.00" y="106.30">индекс</text><text class="sub-acc" x="0.00" y="119.30">что запишем</text><polygon class="gt" points="263.27,58.90 348.84,108.30 263.27,157.70 177.71,108.30"/><polygon class="gr" points="177.71,152.00 263.27,201.40 263.27,157.70 177.71,108.30"/><polygon class="gl" points="348.84,152.00 263.27,201.40 263.27,157.70 348.84,108.30"/><text class="lbl-acc" x="263.27" y="106.30">история</text><text class="sub-acc" x="263.27" y="119.30">точка возврата</text><text class="mono" x="-115.18" y="85.50">git add</text><text class="mono" x="115.18" y="85.50">git commit</text></g></svg>