<svg xmlns="http://www.w3.org/2000/svg" viewBox="-414.6 -42.1 839.0 357.1" width="839" height="357" role="img" aria-label="У функции два выхода: значение и ошибка"><style>
:root{
  --ink:#3a3a3a; --soft:#5c5c5c; --line:#d6d3ce;
  --top:#ded8cd; --lft:#bcb6aa; --rgt:#9d978d;
  --red:#d32f2f; --red-d:#a92525; --red-l:#d9564f;
  --grn:#2e7d32; --grn-d:#24632a; --grn-l:#4e8f52;
  --tagink:#ffffff;
}
@media (prefers-color-scheme: dark){
  :root{
    --ink:#d8d6d2; --soft:#c2bfb8; --line:#454545;
    --top:#4f4c47; --lft:#403d3a; --rgt:#34322f;
    --red:#ef5350; --red-d:#b93b38; --red-l:#ff8a84;
    --grn:#66bb6a; --grn-d:#478a4a; --grn-l:#8fd193;
    --tagink:#241f1f;
  }
}
.g{stroke:#8a857e;stroke-width:.7;fill:none;opacity:.35}
.t{fill:var(--top)}   .l{fill:var(--lft)}   .r{fill:var(--rgt)}
.rt{fill:var(--red-l)} .rl{fill:var(--red)}  .rr{fill:var(--red-d)}
.gt{fill:var(--grn-l)} .gl{fill:var(--grn)}  .gr{fill:var(--grn-d)}
.band-req{fill:var(--red);opacity:.16}
.band-res{fill:var(--grn);opacity:.16}
.band-flow{fill:var(--ink);opacity:.13}
.arw-flow{fill:var(--soft)}
.arw-req{fill:var(--red)} .arw-res{fill:var(--grn)}
text{font-family:ui-sans-serif,system-ui,-apple-system,"Segoe UI",Roboto,sans-serif}
.lbl{fill:var(--ink);font-size:13px;font-weight:600;text-anchor:middle}
.sub{fill:var(--soft);font-size:11px;text-anchor:middle}
.tag{fill:var(--tagink);font-size:10px;font-weight:700;text-anchor:middle;letter-spacing:.3px}
.cap{fill:var(--ink);font-size:12.5px;font-weight:700;text-anchor:middle}
.lbl-acc{fill:var(--tagink);font-size:13px;font-weight:600;text-anchor:middle}
.sub-acc{fill:var(--tagink);opacity:.8;font-size:11px;text-anchor:middle}
.mono{font-family:ui-monospace,SFMono-Regular,Menlo,monospace;font-size:11px;fill:var(--soft);text-anchor:middle}
</style><line class="g" x1="-368.58" y1="76.00" x2="-368.58" y2="228.00"/><line class="g" x1="-296.18" y1="76.00" x2="-296.18" y2="228.00"/><line class="g" x1="-223.78" y1="76.00" x2="-223.78" y2="228.00"/><line class="g" x1="-151.38" y1="76.00" x2="-151.38" y2="228.00"/><line class="g" x1="-78.98" y1="76.00" x2="-78.98" y2="228.00"/><line class="g" x1="-6.58" y1="76.00" x2="-6.58" y2="228.00"/><line class="g" x1="65.82" y1="76.00" x2="65.82" y2="228.00"/><line class="g" x1="138.22" y1="76.00" x2="138.22" y2="228.00"/><line class="g" x1="210.62" y1="76.00" x2="210.62" y2="228.00"/><line class="g" x1="283.02" y1="76.00" x2="283.02" y2="228.00"/><line class="g" x1="355.42" y1="76.00" x2="355.42" y2="228.00"/><line class="g" x1="-368.58" y1="76.00" x2="368.58" y2="76.00"/><line class="g" x1="-368.58" y1="117.80" x2="368.58" y2="117.80"/><line class="g" x1="-368.58" y1="159.60" x2="368.58" y2="159.60"/><line class="g" x1="-368.58" y1="201.40" x2="368.58" y2="201.40"/><line class="g" x1="-368.58" y1="243.20" x2="368.58" y2="243.20"/><polygon class="band-res" points="-111.89,49.40 223.78,49.40 223.78,91.20 -111.89,91.20"/><polygon class="arw-res" points="-69.48,69.54 -83.26,62.70 -83.26,76.38"/><polygon class="arw-res" points="22.66,69.54 8.89,62.70 8.89,76.38"/><polygon class="arw-res" points="114.81,69.54 101.03,62.70 101.03,76.38"/><polygon class="band-req" points="-111.89,117.80 223.78,117.80 223.78,159.60 -111.89,159.60"/><polygon class="arw-req" points="-69.48,137.94 -83.26,131.10 -83.26,144.78"/><polygon class="arw-req" points="22.66,137.94 8.89,131.10 8.89,144.78"/><polygon class="arw-req" points="114.81,137.94 101.03,131.10 101.03,144.78"/><polygon class="t" points="-217.20,39.90 -121.76,95.00 -217.20,150.10 -312.64,95.00"/><polygon class="r" points="-312.64,152.00 -217.20,207.10 -217.20,150.10 -312.64,95.00"/><polygon class="l" points="-121.76,152.00 -217.20,207.10 -217.20,150.10 -121.76,95.00"/><text class="lbl" x="-217.20" y="93.00">Get(slug)</text><text class="sub" x="-217.20" y="106.00">возвращает два значения</text><polygon class="gt" points="302.76,15.96 378.45,59.66 302.76,103.36 227.07,59.66"/><polygon class="gr" points="227.07,77.90 302.76,121.60 302.76,103.36 227.07,59.66"/><polygon class="gl" points="378.45,77.90 302.76,121.60 302.76,103.36 378.45,59.66"/><text class="tag" x="302.76" y="63.66">Article</text><polygon class="rt" points="302.76,90.06 378.45,133.76 302.76,177.46 227.07,133.76"/><polygon class="rr" points="227.07,152.00 302.76,195.70 302.76,177.46 227.07,133.76"/><polygon class="rl" points="378.45,152.00 302.76,195.70 302.76,177.46 378.45,133.76"/><text class="tag" x="302.76" y="137.76">error</text><text class="sub" x="59.24" y="48.64">нет ошибки — есть значение</text><text class="sub" x="59.24" y="117.04">есть ошибка — не nil</text><text class="cap" x="0.00" y="3.94">ОШИБКА — НЕ ИСКЛЮЧЕНИЕ, А ВТОРОЕ ЗНАЧЕНИЕ</text><text class="mono" x="0.00" y="19.90">func (s *Store) Get(slug string) (Article, error)</text><text class="cap" x="0.00" y="253.10">ВТОРОЕ ПРОВЕРЯЮТ ПЕРВЫМ</text><text class="mono" x="0.00" y="269.06">if err != nil { return … }   ·   errors.Is(err, ErrNotFound)</text></svg>