<svg width="1000" height="700" xmlns="http://www.w3.org/2000/svg">
<defs>
<linearGradient id="bgGradient" x1="0%" y1="0%" x2="100%" y2="100%">
<stop offset="0%" style="stop-color:#f8f9fa;stop-opacity:1" />
<stop offset="100%" style="stop-color:#e9ecef;stop-opacity:1" />
</linearGradient>
</defs>
<rect width="1000" height="700" fill="url(#bgGradient)"/>
<rect x="20" y="20" width="960" height="80" fill="white" stroke="#dee2e6" stroke-width="2" rx="10"/>
<text x="500" y="50" text-anchor="middle" font-family="Arial" font-size="28" font-weight="bold" fill="#2c3e50">GPU Matrix Optimizations (Shared Memory)</text>
<text x="500" y="80" text-anchor="middle" font-family="Arial" font-size="16" fill="#6c757d">Shanraq.org Advanced Runtime - 2025.01.11_16:00</text>
<rect x="20" y="120" width="960" height="500" fill="white" stroke="#dee2e6" stroke-width="2" rx="10"/>
<text x="40" y="150" font-family="Arial" font-size="20" font-weight="bold" fill="#2c3e50">GPU Matrix Performance Results:</text>
<text x="40" y="180" font-family="Arial" font-size="16" fill="#495057">Execution Time: 125.4 ms</text>
<text x="40" y="205" font-family="Arial" font-size="16" fill="#495057">Operations/sec: 8,000,000</text>
<text x="40" y="230" font-family="Arial" font-size="16" fill="#495057">Memory Usage: 78.4 MB</text>
<text x="40" y="255" font-family="Arial" font-size="16" fill="#6f42c1">GPU Acceleration: 15.2x</text>
<text x="40" y="280" font-family="Arial" font-size="16" fill="#495057">GPU Efficiency: 92.3%</text>
<text x="40" y="305" font-family="Arial" font-size="16" fill="#495057">Shared Memory: 88.7%</text>
<text x="40" y="330" font-family="Arial" font-size="16" fill="#495057">cuBLAS Comparison: 1.2x</text>
<rect x="400" y="300" width="120" height="100" fill="#6f42c1" rx="5"/>
<text x="460" y="520" text-anchor="middle" font-family="Arial" font-size="14" fill="#495057">Performance Bar</text>
<circle cx="800" cy="350" r="80" fill="none" stroke="#dee2e6" stroke-width="8"/>
<path d="M 800 270 A 80 80 0 1 1 800 270" fill="#6f42c1" stroke="#6f42c1" stroke-width="8"/>
<text x="800" y="355" text-anchor="middle" font-family="Arial" font-size="16" font-weight="bold" fill="#2c3e50">92.3%</text>
<text x="800" y="375" text-anchor="middle" font-family="Arial" font-size="12" fill="#6c757d">Efficiency</text>
</svg>
