<svg width="1200" height="675" viewBox="0 0 1200 675" xmlns="http://www.w3.org/2000/svg">
  <defs>
    <filter id="wc" x="-15%" y="-15%" width="130%" height="130%">
      <feTurbulence type="fractalNoise" baseFrequency="0.011 0.014" numOctaves="3" seed="261" result="n"/>
      <feDisplacementMap in="SourceGraphic" in2="n" scale="26" xChannelSelector="R" yChannelSelector="G"/>
      <feGaussianBlur stdDeviation="2"/>
    </filter>
    <filter id="grain"><feTurbulence type="fractalNoise" baseFrequency="0.9" numOctaves="2" seed="261"/>
      <feColorMatrix type="matrix" values="0 0 0 0 0  0 0 0 0 0  0 0 0 0 0  0 0 0 0.05 0"/></filter>
  </defs>
  <rect width="1200" height="675" fill="#9a5a7a"/>
  <g filter="url(#wc)"><ellipse cx="300" cy="260" rx="360" ry="300" fill="#9a5a7a" fill-opacity="0.7"/><ellipse cx="820" cy="360" rx="420" ry="340" fill="#7f3f60" fill-opacity="0.7"/><ellipse cx="560" cy="520" rx="480" ry="300" fill="#bd82a0" fill-opacity="0.7"/><ellipse cx="980" cy="140" rx="300" ry="260" fill="#6a2f4f" fill-opacity="0.7"/></g>
  <rect width="1200" height="675" fill="#ffffff" filter="url(#grain)"/>
  <path d="M600 298 C 585 316 587 337 600 346 C 613 337 615 316 600 298 Z" fill="#ffffff" opacity="0.95"/><line x1="600" y1="346" x2="600" y2="358" stroke="#ffffff" stroke-width="5"/><rect x="576" y="358" width="48" height="100" rx="8" fill="none" stroke="#ffffff" stroke-width="11" opacity="0.92"/><line x1="554" y1="458" x2="646" y2="458" stroke="#ffffff" stroke-width="11" stroke-linecap="round" opacity="0.92"/>
  <g transform="translate(1108,24) scale(0.16)" fill="none" stroke-linecap="round" opacity="0.9"><g stroke="#ffffff" stroke-opacity="0.5" stroke-width="45"><line x1="76" y1="76" x2="324" y2="324"/><line x1="137" y1="37" x2="363" y2="263"/><line x1="37" y1="137" x2="263" y2="363"/><line x1="76" y1="324" x2="324" y2="76"/><line x1="137" y1="363" x2="363" y2="137"/><line x1="37" y1="263" x2="263" y2="37"/></g><g stroke="#ffffff" stroke-width="30"><line x1="76" y1="76" x2="324" y2="324"/><line x1="137" y1="37" x2="363" y2="263"/><line x1="37" y1="137" x2="263" y2="363"/><line x1="76" y1="324" x2="324" y2="76"/><line x1="137" y1="363" x2="363" y2="137"/><line x1="37" y1="263" x2="263" y2="37"/></g></g>
</svg>
